<svg width="54" height="54" viewBox="0 0 54 54" fill="none" xmlns="http://www.w3.org/2000/svg">
<path d="M47.9672 45.0615L34.2721 31.3664C36.3973 28.6189 37.5469 25.2598 37.5469 21.7266C37.5469 17.4973 35.8963 13.5316 32.9115 10.5416C29.9268 7.55156 25.9506 5.90625 21.7266 5.90625C17.5025 5.90625 13.5264 7.55684 10.5416 10.5416C7.55156 13.5264 5.90625 17.4973 5.90625 21.7266C5.90625 25.9506 7.55684 29.9268 10.5416 32.9115C13.5264 35.9016 17.4973 37.5469 21.7266 37.5469C25.2598 37.5469 28.6137 36.3973 31.3611 34.2773L45.0563 47.9672C45.0964 48.0074 45.1441 48.0392 45.1966 48.061C45.2491 48.0827 45.3053 48.0939 45.3621 48.0939C45.4189 48.0939 45.4752 48.0827 45.5276 48.061C45.5801 48.0392 45.6278 48.0074 45.668 47.9672L47.9672 45.6732C48.0074 45.6331 48.0392 45.5854 48.061 45.5329C48.0827 45.4804 48.0939 45.4242 48.0939 45.3674C48.0939 45.3106 48.0827 45.2543 48.061 45.2018C48.0392 45.1494 48.0074 45.1017 47.9672 45.0615ZM30.0797 30.0797C27.8438 32.3104 24.8801 33.5391 21.7266 33.5391C18.573 33.5391 15.6094 32.3104 13.3734 30.0797C11.1428 27.8438 9.91406 24.8801 9.91406 21.7266C9.91406 18.573 11.1428 15.6041 13.3734 13.3734C15.6094 11.1428 18.573 9.91406 21.7266 9.91406C24.8801 9.91406 27.849 11.1375 30.0797 13.3734C32.3104 15.6094 33.5391 18.573 33.5391 21.7266C33.5391 24.8801 32.3104 27.849 30.0797 30.0797Z" fill="white"/>
</svg>
